<svg width="44" height="42" viewBox="0 0 44 42" fill="none" xmlns="http://www.w3.org/2000/svg">
<mask id="mask0_342_4830" style="mask-type:luminance" maskUnits="userSpaceOnUse" x="13" y="4" width="17" height="34">
<path d="M13.6458 4.72461H29.2493V37.2499H13.6458V4.72461Z" fill="white"/>
</mask>
<g mask="url(#mask0_342_4830)">
<path d="M25.6504 10.1267H29.2493V4.78088H24.6554V4.80589C18.6079 5.01848 17.3609 8.35103 17.2575 11.8774H17.2446V15.5851H13.6458V20.931H17.2446V37.1936H23.7057V20.931H28.3382L29.2493 15.5851H23.7057V12.2651C23.7057 11.0834 24.5068 10.1267 25.6504 10.1267Z" fill="white"/>
</g>
<mask id="mask1_342_4830" style="mask-type:luminance" maskUnits="userSpaceOnUse" x="0" y="0" width="44" height="42">
<path d="M0 0.135254H43.2246V41.9579H0V0.135254Z" fill="white"/>
</mask>
<g mask="url(#mask1_342_4830)">
<path d="M21.6123 41.9579C9.67223 41.9579 0 32.5355 0 21.0435C0 9.5577 9.67223 0.135254 21.6123 0.135254C33.5524 0.135254 43.2246 9.48893 43.2246 21.0435C43.2246 32.598 33.4813 41.9579 21.6123 41.9579ZM21.6123 1.42326C10.4088 1.42326 1.33744 10.2017 1.33744 21.0435C1.33744 31.8852 10.4088 40.6637 21.6123 40.6637C32.8158 40.6637 41.8872 31.8852 41.8872 21.0435C41.8872 10.2017 32.7512 1.42326 21.6123 1.42326Z" fill="white"/>
</g>
</svg>
