<svg width="100" height="100" viewBox="0 0 100 100" xmlns="http://www.w3.org/2000/svg"><path fill="#000000" fill-rule="evenodd" d="M669.445,275H825L625,75V225C625,252.616,644.9,275,669.445,275ZM675,325A100,100,0,0,1,575,225V75H175V874.774h0.006c0,0.076-.006.15-0.006,0.226a50,50,0,0,0,50,50H825V325H675ZM400,800H300V750H400v50Zm150,0H450V750H550v50Zm-7.322-282.322L472.856,587.5l69.822,69.822h0a25,25,0,0,1-35.356,35.356h0L437.5,622.856l-69.822,69.822h0a25,25,0,0,1-35.356-35.356h0L402.144,587.5l-69.822-69.822h0a25,25,0,0,1,35.356-35.356h0L437.5,552.145l69.822-69.823h0a25,25,0,0,1,35.356,35.356h0ZM700,800H600V750H700v50Zm0-100H600V650H700v50Zm0-100H600V550H700v50Zm0-100H600V450H700v50Z" transform="scale(.1)"/></svg>