<svg width="47" height="46" viewBox="0 0 47 46" fill="none" xmlns="http://www.w3.org/2000/svg">
<mask id="mask0_342_4857" style="mask-type:luminance" maskUnits="userSpaceOnUse" x="2" y="1" width="43" height="42">
<path d="M2.80493 1.09985H44.6314V42.8456H2.80493V1.09985Z" fill="white"/>
</mask>
<g mask="url(#mask0_342_4857)">
<path d="M23.6056 42.6269C12.1122 42.6269 2.80493 33.2666 2.80493 21.8604C2.80493 10.4542 12.1122 1.09985 23.6056 1.09985C35.099 1.09985 44.4122 10.3892 44.4122 21.8604C44.4122 33.3316 35.0338 42.6269 23.6056 42.6269ZM23.6056 2.38298C12.8231 2.38298 4.09053 11.0987 4.09053 21.8604C4.09053 32.628 12.8231 41.3437 23.6056 41.3437C34.394 41.3437 43.1266 32.628 43.1266 21.8604C43.1266 11.0987 34.3288 2.38298 23.6056 2.38298Z" fill="white"/>
</g>
<mask id="mask1_342_4857" style="mask-type:luminance" maskUnits="userSpaceOnUse" x="11" y="9" width="25" height="25">
<path d="M11.3894 9.23022H35.6085V33.3021H11.3894V9.23022Z" fill="white"/>
</mask>
<g mask="url(#mask1_342_4857)">
<path d="M31.8168 33.1779H14.9559C12.989 33.1779 11.3894 31.5814 11.3894 29.6183V12.7899C11.3894 10.8267 12.989 9.23022 14.9559 9.23022H31.8168C33.7837 9.23022 35.3833 10.8267 35.3833 12.7899V29.6183C35.3833 31.5814 33.7837 33.1779 31.8168 33.1779ZM14.9559 10.5252C13.7059 10.5252 12.6869 11.5422 12.6869 12.7899V29.6183C12.6869 30.8659 13.7059 31.8829 14.9559 31.8829H31.8168C33.0669 31.8829 34.0859 30.8659 34.0859 29.6183V12.7899C34.0859 11.5422 33.0669 10.5252 31.8168 10.5252H14.9559Z" fill="white"/>
</g>
<path d="M23.3863 27.998C19.6302 27.998 16.5791 24.9528 16.5791 21.204C16.5791 17.4552 19.6302 14.4041 23.3863 14.4041C27.1424 14.4041 30.1934 17.4552 30.1934 21.204C30.1934 24.9528 27.1424 27.998 23.3863 27.998ZM23.3863 15.699C20.347 15.699 17.8766 18.1706 17.8766 21.204C17.8766 24.2374 20.347 26.7031 23.3863 26.7031C26.4255 26.7031 28.9019 24.2374 28.9019 21.204C28.9019 18.1706 26.4255 15.699 23.3863 15.699Z" fill="white"/>
<path d="M30.5193 16.3494C29.2692 16.3494 28.2502 15.3324 28.2502 14.0847C28.2502 12.8312 29.2692 11.8201 30.5193 11.8201C31.7694 11.8201 32.7884 12.8312 32.7884 14.0847C32.7884 15.3324 31.7694 16.3494 30.5193 16.3494ZM30.5193 13.115C29.9861 13.115 29.5477 13.5467 29.5477 14.0847C29.5477 14.6169 29.9861 15.0545 30.5193 15.0545C31.0584 15.0545 31.4909 14.6169 31.4909 14.0847C31.4909 13.5467 31.0584 13.115 30.5193 13.115Z" fill="white"/>
</svg>
