<svg width="43" height="42" viewBox="0 0 43 42" fill="none" xmlns="http://www.w3.org/2000/svg">
<mask id="mask0_342_4841" style="mask-type:luminance" maskUnits="userSpaceOnUse" x="0" y="0" width="43" height="42">
<path d="M0.737305 0.135254H42.5638V41.8811H0.737305V0.135254Z" fill="white"/>
</mask>
<g mask="url(#mask0_342_4841)">
<path d="M21.538 41.6623C10.0446 41.6623 0.737305 32.302 0.737305 20.8958C0.737305 9.48962 10.0446 0.135254 21.538 0.135254C33.0314 0.135254 42.3446 9.42458 42.3446 20.8958C42.3446 32.367 32.9662 41.6623 21.538 41.6623ZM21.538 1.41838C10.7555 1.41838 2.0229 10.1341 2.0229 20.8958C2.0229 31.6634 10.7555 40.3791 21.538 40.3791C32.3263 40.3791 41.059 31.6634 41.059 20.8958C41.059 10.1341 32.2612 1.41838 21.538 1.41838Z" fill="white"/>
</g>
<mask id="mask1_342_4841" style="mask-type:luminance" maskUnits="userSpaceOnUse" x="7" y="8" width="26" height="26">
<path d="M7.23047 8.15332H32.5515V33.4255H7.23047V8.15332Z" fill="white"/>
</mask>
<g mask="url(#mask1_342_4841)">
<path d="M32.7529 29.7535C32.7529 31.894 31.017 33.6265 28.8783 33.6265H11.111C8.96632 33.6265 7.23047 31.894 7.23047 29.7535V12.0263C7.23047 9.88583 8.96632 8.15332 11.111 8.15332H28.8783C31.017 8.15332 32.7588 9.88583 32.7588 12.0263V29.7535H32.7529Z" fill="black"/>
</g>
<path d="M17.3256 17.2415C17.3256 17.4958 17.2782 17.7382 17.1775 17.9688C17.0827 18.2053 16.9464 18.4064 16.7687 18.5897C16.585 18.7671 16.3836 18.9031 16.1466 18.9977C15.9156 19.0982 15.6727 19.1455 15.4179 19.1455C15.1632 19.1455 14.9203 19.0982 14.6892 18.9977C14.4522 18.9031 14.2508 18.7671 14.0671 18.5897C13.8894 18.4064 13.7532 18.2053 13.6584 17.9688C13.5576 17.7382 13.5103 17.4958 13.5103 17.2415C13.5103 16.9873 13.5576 16.7448 13.6584 16.5142C13.7532 16.2777 13.8894 16.0766 14.0671 15.8933C14.2508 15.716 14.4522 15.58 14.6892 15.4854C14.9203 15.3848 15.1632 15.3375 15.4179 15.3375C15.6727 15.3375 15.9156 15.3848 16.1466 15.4854C16.3836 15.58 16.585 15.716 16.7687 15.8933C16.9464 16.0766 17.0827 16.2777 17.1775 16.5142C17.2782 16.7448 17.3256 16.9873 17.3256 17.2415Z" fill="white"/>
<path d="M13.7769 20.547H17.0471V31.0662H13.7769V20.547Z" fill="white"/>
<path d="M19.1089 20.547H22.2251V31.0662H19.1089V20.547Z" fill="white"/>
<path d="M19.2451 26.1465H22.3614V31.0661H19.2451V26.1465Z" fill="white"/>
<path d="M22.3614 26.1465C22.3614 26.1465 22.314 24.7806 22.6754 24.071C22.6754 24.071 23.0368 23.2018 24.1683 23.1959C24.1683 23.1959 25.4954 22.9653 25.8805 24.278C25.8805 24.278 26.0227 25.0112 26.0227 25.3187C26.0227 25.6262 26.0345 31.0661 26.0345 31.0661H29.2989V25.0408C29.2989 25.0408 29.5359 21.6349 27.486 20.7065C27.486 20.7065 24.1209 19.1987 22.2962 21.966C22.2962 21.966 21.8993 22.238 21.846 21.4752C21.7867 20.7065 21.3187 22.6519 21.3068 22.6933C21.295 22.7347 21.846 26.5722 21.846 26.5722L22.3614 26.1465Z" fill="white"/>
</svg>
