<svg width="100" height="100" viewBox="0 0 100 100" xmlns="http://www.w3.org/2000/svg"><path fill="#FFFFFF" fill-rule="evenodd" d="M726.227,850H273.773A23.774,23.774,0,0,1,250,826.227V173.773A23.774,23.774,0,0,1,273.773,150H726.227A23.774,23.774,0,0,1,750,173.773v52.454A23.774,23.774,0,0,0,773.773,250h27.454A23.774,23.774,0,0,0,825,226.227v-99A52.23,52.23,0,0,0,772.77,75H224.238A49.238,49.238,0,0,0,175,124.238V870.777A54.222,54.222,0,0,0,229.223,925H772.652A52.348,52.348,0,0,0,825,872.652V773.773A23.774,23.774,0,0,0,801.227,750H773.773A23.774,23.774,0,0,0,750,773.773v52.454A23.774,23.774,0,0,1,726.227,850ZM575,625H400c-25.141,0-50-25.687-50-50V425c0-24.313,24.859-50,50-50H575V250L808.46,460.5l0,0A56.8,56.8,0,0,1,825,500.5h0a56.81,56.81,0,0,1-16.542,40h0L575,750V625Z" transform="scale(.1)"/></svg>